<?xml version="1.0" encoding="iso-8859-1"?>
<!-- Generator: Adobe Illustrator 16.0.0, SVG Export Plug-In . SVG Version: 6.00 Build 0)  -->
<!DOCTYPE svg PUBLIC "-//W3C//DTD SVG 1.1//EN" "http://www.w3.org/Graphics/SVG/1.1/DTD/svg11.dtd">
<svg version="1.1" id="Layer_1" xmlns="http://www.w3.org/2000/svg" xmlns:xlink="http://www.w3.org/1999/xlink" x="0px" y="0px"
	 width="566.93px" height="566.93px" viewBox="0 0 566.93 566.93" style="enable-background:new 0 0 566.93 566.93;"
	 xml:space="preserve">
<g>
	<path style="fill:#FFFFFF;" d="M566.93,283.461c0,156.553-126.914,283.467-283.459,283.467C126.913,566.928,0,440.014,0,283.461
		C0,126.912,126.913,0.002,283.471,0.002C440.016,0.002,566.93,126.912,566.93,283.461"/>
	<path style="fill-rule:evenodd;clip-rule:evenodd;" d="M508.981,241.996l1.055,6.626c0.619,3.876,2.629,5.546,6.027,5.006
		c3.365-0.532,4.738-2.742,4.119-6.618l-1.038-6.626L508.981,241.996z M494.683,240.196l26.99-4.295l1.791,11.168
		c0.452,2.917,0.084,5.274-1.121,7.091c-1.173,1.808-3.064,2.913-5.659,3.336c-2.646,0.418-4.806-0.05-6.514-1.398
		c-1.674-1.356-2.746-3.487-3.215-6.396l-1.139-7.2l-10.498,1.67L494.683,240.196z M493.242,222.151
		c0.771,2.607,2.228,4.361,4.421,5.291c2.21,0.95,4.905,0.95,8.104,0.017c3.215-0.938,5.492-2.378,6.814-4.333
		c1.356-1.942,1.641-4.232,0.871-6.865c-0.754-2.608-2.228-4.382-4.421-5.333c-2.177-0.925-4.855-0.925-8.07,0.008
		c-3.197,0.933-5.491,2.373-6.848,4.336C492.773,217.258,492.489,219.543,493.242,222.151 M489.911,223.118
		c-0.737-2.503-0.838-4.834-0.269-6.986c0.586-2.151,1.725-4.035,3.449-5.638c1.741-1.586,3.969-2.779,6.697-3.575
		c2.746-0.799,5.274-0.996,7.585-0.594c2.294,0.431,4.27,1.406,5.894,2.926c1.624,1.515,2.796,3.529,3.533,6.032
		c0.72,2.478,0.803,4.801,0.251,6.953c-0.553,2.181-1.691,4.056-3.399,5.634c-1.725,1.603-3.935,2.804-6.663,3.6
		c-2.763,0.799-5.291,0.988-7.636,0.565c-2.293-0.402-4.27-1.377-5.927-2.913C491.803,227.601,490.631,225.604,489.911,223.118
		 M475.193,184.588l24.914-11.206l1.657,3.675l-10.749,4.83l6.279,13.964l10.749-4.826l1.641,3.642l-24.931,11.197l-1.624-3.646
		l11.084-4.989l-6.279-13.964l-11.084,4.998L475.193,184.588z M467.123,171.624c-1.122-1.833-1.892-3.65-2.377-5.462
		c-0.436-1.816-0.553-3.512-0.335-5.098l3.365-0.565c-0.151,1.62-0.051,3.181,0.284,4.696c0.352,1.507,1.005,3.06,1.976,4.646
		c1.139,1.879,2.328,3.051,3.517,3.533c1.239,0.481,2.411,0.394,3.482-0.268c0.871-0.54,1.39-1.277,1.49-2.227
		c0.134-0.963-0.084-2.29-0.703-3.977l-1.44-3.989c-0.82-2.356-1.055-4.37-0.687-6.023c0.402-1.641,1.457-2.976,3.182-4.031
		c1.39-0.85,2.829-1.227,4.337-1.147c1.523,0.101,2.963,0.64,4.353,1.611c1.39,0.958,2.629,2.294,3.684,4.019
		c0.954,1.595,1.607,3.207,1.942,4.843c0.385,1.654,0.401,3.223,0.084,4.726l-3.299,0.469c0.503-2.88-0.05-5.646-1.674-8.288
		c-0.988-1.637-2.144-2.708-3.466-3.24c-1.307-0.498-2.563-0.385-3.784,0.36c-0.921,0.565-1.474,1.311-1.675,2.244
		c-0.184,0.929,0,2.177,0.569,3.738l1.406,3.951c0.888,2.486,1.173,4.571,0.871,6.241c-0.302,1.666-1.239,2.993-2.88,3.989
		c-1.373,0.829-2.779,1.197-4.236,1.088c-1.473-0.104-2.88-0.645-4.27-1.62C469.484,174.855,468.245,173.449,467.123,171.624
		 M445.323,141.39l18.184-15.596l-6.313-7.354l2.562-2.193l15.22,17.735l-2.562,2.197l-6.313-7.358l-18.183,15.604L445.323,141.39z
		 M425.215,121.114l18.735-19.87l12.859,12.13l-2.244,2.365l-10.012-9.464l-5.894,6.224l9.442,8.916l-2.227,2.365l-9.443-8.916
		l-6.178,6.542l10.029,9.472l-2.228,2.365L425.215,121.114z M405.676,105.882l16.475-21.8l3.215,2.424l-7.4,9.799l0.067,0.055
		l17.513-2.164l3.969,2.993l-18.97,2.223l3.097,20.042l-4.018-3.035l-2.964-18.233l-0.067-0.05l-7.685,10.176L405.676,105.882z
		 M393.353,98.611c-2.378-1.398-4.136-3.077-5.241-5.057c-1.121-1.972-1.624-4.131-1.473-6.471c0.167-2.348,0.987-4.759,2.444-7.237
		s3.147-4.353,5.106-5.638c1.959-1.272,4.086-1.896,6.362-1.888c2.261,0.017,4.588,0.72,6.966,2.118
		c1.607,0.934,2.946,2.064,4.035,3.395c1.121,1.31,1.875,2.708,2.26,4.19l-2.829,2.076c-0.503-1.52-1.155-2.796-2.026-3.843
		c-0.82-1.042-1.875-1.942-3.147-2.691c-2.528-1.482-4.923-1.842-7.183-1.063c-2.244,0.774-4.22,2.607-5.894,5.479
		c-1.691,2.88-2.328,5.496-1.926,7.861c0.436,2.34,1.926,4.261,4.453,5.751c1.272,0.745,2.563,1.235,3.868,1.457
		c1.34,0.218,2.779,0.163,4.354-0.142l-0.419,3.478c-1.49,0.369-3.063,0.385-4.771,0.08
		C396.617,100.172,394.96,99.553,393.353,98.611 M374.901,88.41l11.838-24.621l3.633,1.75L378.535,90.16L374.901,88.41z
		 M358.292,81.441l8.572-22.365l-9.041-3.474l1.206-3.144l21.816,8.367l-1.206,3.144l-9.041-3.461l-8.573,22.356L358.292,81.441z
		 M314.492,56.271l6.613,1.055c3.867,0.619,6.078-0.771,6.63-4.165c0.536-3.37-1.138-5.358-5.006-5.978l-6.63-1.055L314.492,56.271z
		 M308.33,69.302l4.286-26.986l11.185,1.783c2.896,0.464,5.04,1.544,6.396,3.256c1.339,1.674,1.824,3.817,1.406,6.421
		c-0.419,2.633-1.54,4.546-3.349,5.743c-1.809,1.185-4.169,1.536-7.083,1.071l-7.199-1.138l-1.657,10.485L308.33,69.302z
		 M289.461,65.024c2.712,0.088,4.839-0.771,6.396-2.554c1.574-1.816,2.428-4.391,2.528-7.714c0.101-3.336-0.569-5.944-2.009-7.819
		c-1.44-1.888-3.533-2.863-6.263-2.951c-2.716-0.083-4.868,0.774-6.441,2.558c-1.557,1.783-2.378,4.345-2.486,7.681
		c-0.109,3.324,0.561,5.948,2,7.853C284.659,63.961,286.744,64.94,289.461,65.024 M289.344,68.515
		c-2.6-0.088-4.835-0.72-6.719-1.921c-1.875-1.218-3.315-2.888-4.303-5.015c-0.971-2.151-1.406-4.646-1.323-7.484
		c0.092-2.872,0.687-5.333,1.792-7.396c1.113-2.06,2.646-3.629,4.604-4.701c1.934-1.08,4.211-1.578,6.835-1.499
		c2.563,0.075,4.789,0.72,6.664,1.913c1.926,1.197,3.349,2.863,4.32,4.977c0.987,2.126,1.456,4.612,1.355,7.451
		c-0.083,2.871-0.703,5.349-1.824,7.434c-1.089,2.056-2.629,3.642-4.604,4.739C294.199,68.084,291.938,68.59,289.344,68.515
		 M248.067,70.633l-2.93-27.17l4.001-0.427l1.272,11.712l15.211-1.649l-1.264-11.716l3.968-0.431l2.947,27.166l-3.968,0.431
		l-1.323-12.097l-15.22,1.645l1.314,12.105L248.067,70.633z M232.948,74.379c-2.076,0.494-4.061,0.691-5.919,0.574
		c-1.867-0.138-3.516-0.548-4.956-1.243l0.511-3.387c1.474,0.649,2.997,1.047,4.538,1.181c1.557,0.138,3.223-0.017,5.031-0.444
		c2.143-0.506,3.625-1.26,4.445-2.256c0.846-1.017,1.13-2.152,0.829-3.387c-0.243-1-0.795-1.704-1.649-2.105
		c-0.888-0.431-2.219-0.619-4.01-0.569l-4.236,0.138c-2.503,0.071-4.479-0.343-5.936-1.218c-1.44-0.875-2.386-2.298-2.846-4.249
		c-0.385-1.586-0.302-3.089,0.234-4.487c0.569-1.411,1.523-2.62,2.88-3.633c1.348-1.046,3.005-1.792,4.956-2.265
		c1.809-0.427,3.55-0.557,5.216-0.368c1.683,0.155,3.198,0.628,4.512,1.398l-0.569,3.286c-2.579-1.373-5.383-1.708-8.405-0.988
		c-1.858,0.448-3.231,1.218-4.152,2.307c-0.871,1.088-1.156,2.323-0.821,3.705c0.243,1.055,0.787,1.816,1.616,2.29
		c0.829,0.46,2.084,0.666,3.742,0.615l4.186-0.122c2.646-0.067,4.705,0.302,6.211,1.105c1.49,0.791,2.445,2.109,2.897,3.972
		c0.368,1.557,0.284,3.018-0.276,4.37c-0.561,1.356-1.499,2.537-2.863,3.549C236.757,73.136,235.033,73.881,232.948,74.379
		 M199.06,85.212l-9.167-22.135l-8.949,3.713l-1.297-3.118l21.59-8.941l1.289,3.118l-8.949,3.705l9.167,22.126L199.06,85.212z
		 M171.936,98.929l-13.21-23.926l15.479-8.539l1.582,2.854l-12.088,6.66l4.135,7.501l11.369-6.274l1.574,2.854l-11.369,6.266
		l4.337,7.882l12.088-6.672l1.565,2.854L171.936,98.929z M151.367,112.998l-15.755-22.332l3.298-2.323l7.083,10.046l0.059-0.05
		l3.282-17.342l4.052-2.863l-3.65,18.756l20.042,3.127l-4.127,2.905l-18.275-2.716l-0.067,0.042l7.35,10.427L151.367,112.998z
		 M141.965,121.474c-2.068,1.837-4.219,2.984-6.429,3.437c-2.227,0.456-4.437,0.259-6.614-0.607
		c-2.185-0.892-4.219-2.415-6.136-4.55c-1.9-2.144-3.165-4.349-3.776-6.593c-0.603-2.265-0.552-4.483,0.159-6.635
		c0.711-2.155,2.101-4.152,4.161-5.985c1.39-1.243,2.88-2.168,4.47-2.796c1.607-0.649,3.156-0.933,4.688-0.845l1.097,3.323
		c-1.583,0-3.005,0.251-4.261,0.745c-1.248,0.456-2.428,1.176-3.533,2.151c-2.202,1.955-3.282,4.136-3.231,6.518
		c0.05,2.373,1.172,4.818,3.382,7.304c2.219,2.486,4.521,3.901,6.89,4.244c2.369,0.314,4.646-0.498,6.839-2.453
		c1.105-0.988,1.967-2.06,2.579-3.231c0.62-1.21,1.021-2.6,1.206-4.186l3.189,1.478c-0.109,1.516-0.578,3.035-1.398,4.559
		C144.443,118.862,143.355,120.231,141.965,121.474 M125.691,136.744l-19.807-18.828l2.779-2.913l19.799,18.815L125.691,136.744z
		 M114.322,149.988l-18.635-15.052l-6.086,7.535l-2.621-2.126l14.692-18.175l2.62,2.126l-6.095,7.534l18.635,15.057L114.322,149.988
		z M76.449,184.579l3.047-5.977c1.783-3.508,1.139-6.036-1.925-7.593c-3.039-1.544-5.45-0.569-7.233,2.93l-3.031,5.973
		L76.449,184.579z M86.964,194.445l-24.361-12.398l5.132-10.08c1.348-2.633,3.022-4.319,5.064-5.082
		c2.026-0.766,4.203-0.561,6.547,0.641c2.369,1.201,3.851,2.854,4.445,4.956c0.561,2.072,0.176,4.433-1.164,7.053l-3.298,6.5
		l9.459,4.818L86.964,194.445z M77.831,209.087c0.929-2.545,0.778-4.843-0.436-6.877c-1.23-2.063-3.407-3.667-6.538-4.81
		c-3.14-1.13-5.827-1.302-8.062-0.523c-2.227,0.791-3.809,2.461-4.747,5.043c-0.929,2.545-0.787,4.852,0.418,6.907
		c1.222,2.034,3.382,3.621,6.521,4.759c3.131,1.13,5.835,1.31,8.087,0.54C75.319,213.323,76.901,211.641,77.831,209.087
		 M81.104,210.276c-0.887,2.453-2.193,4.391-3.901,5.797c-1.758,1.398-3.784,2.248-6.12,2.528c-2.336,0.247-4.847-0.113-7.526-1.08
		c-2.696-0.975-4.839-2.306-6.463-3.993c-1.607-1.708-2.612-3.654-3.03-5.839c-0.419-2.185-0.193-4.508,0.703-6.961
		c0.879-2.428,2.177-4.345,3.901-5.759c1.725-1.432,3.75-2.282,6.078-2.537c2.319-0.285,4.822,0.059,7.501,1.025
		c2.687,0.979,4.847,2.323,6.479,4.047c1.616,1.679,2.646,3.633,3.072,5.848C82.226,205.538,81.991,207.853,81.104,210.276
		 M70.187,250.347l-26.739-5.634l0.829-3.943l11.528,2.436l3.165-14.985l-11.536-2.428l0.82-3.91l26.739,5.634l-0.829,3.909
		l-11.896-2.511L59.103,243.9l11.904,2.503L70.187,250.347z M69.048,265.692c-0.176,2.143-0.611,4.073-1.289,5.802
		c-0.711,1.741-1.624,3.181-2.729,4.328l-3.064-1.524c1.097-1.209,1.934-2.528,2.537-3.959c0.611-1.423,0.996-3.068,1.138-4.923
		c0.193-2.185-0.067-3.83-0.762-4.918c-0.711-1.126-1.699-1.733-2.963-1.838c-1.021-0.083-1.875,0.226-2.528,0.921
		c-0.67,0.699-1.264,1.909-1.758,3.633l-1.197,4.064c-0.712,2.398-1.7,4.165-2.997,5.278c-1.281,1.08-2.922,1.553-4.931,1.39
		c-1.624-0.138-3.014-0.678-4.186-1.628c-1.164-0.979-2.009-2.264-2.562-3.868c-0.569-1.603-0.77-3.403-0.603-5.408
		c0.142-1.859,0.561-3.55,1.256-5.073c0.669-1.553,1.59-2.838,2.729-3.859l2.947,1.561c-2.109,2.03-3.282,4.592-3.541,7.681
		c-0.159,1.909,0.142,3.461,0.913,4.663c0.753,1.172,1.841,1.825,3.265,1.938c1.072,0.092,1.959-0.188,2.662-0.833
		s1.29-1.758,1.75-3.353l1.18-4.026c0.753-2.541,1.741-4.383,2.98-5.555c1.214-1.176,2.779-1.683,4.671-1.528
		c1.599,0.13,2.955,0.67,4.068,1.611c1.113,0.942,1.959,2.219,2.495,3.822C69.048,261.686,69.216,263.557,69.048,265.692
		 M68.839,303.139l-23.876,1.941l0.795,9.652l-3.374,0.276l-1.883-23.289l3.357-0.276l0.787,9.66l23.868-1.934L68.839,303.139z
		 M73.318,332.171l-26.839,5.123l-3.315-17.362l3.198-0.611l2.595,13.554l8.405-1.607l-2.428-12.75l3.198-0.611l2.436,12.742
		l8.832-1.675l-2.595-13.554l3.198-0.61L73.318,332.171z M80.166,355.771l-26.103,8.045l-1.197-3.851l11.745-3.616l-0.025-0.084
		l-15.462-8.489l-1.473-4.738l16.693,9.293l9.192-18.074l1.49,4.813l-8.254,16.525l0.025,0.075l12.181-3.742L80.166,355.771z
		 M85.44,367.809c1.105,2.528,1.549,4.914,1.29,7.175c-0.251,2.252-1.114,4.295-2.595,6.103c-1.524,1.809-3.6,3.273-6.229,4.429
		c-2.621,1.155-5.098,1.691-7.434,1.591c-2.344-0.134-4.429-0.854-6.262-2.193c-1.833-1.34-3.299-3.281-4.42-5.81
		c-0.753-1.708-1.172-3.399-1.281-5.107c-0.125-1.724,0.075-3.29,0.636-4.721l3.508-0.025c-0.486,1.515-0.704,2.946-0.611,4.295
		c0.05,1.322,0.368,2.679,0.963,4.018c1.188,2.696,2.93,4.387,5.199,5.073c2.285,0.687,4.947,0.369,8.012-0.987
		c3.039-1.331,5.09-3.089,6.145-5.241c1.038-2.151,0.955-4.57-0.243-7.267c-0.578-1.355-1.348-2.494-2.269-3.44
		c-0.962-0.971-2.16-1.774-3.616-2.437l2.377-2.569c1.406,0.561,2.712,1.473,3.918,2.721
		C83.716,364.645,84.687,366.102,85.44,367.809 M95.034,388.16l-23.985,13.11l-1.934-3.533l23.976-13.109L95.034,388.16z
		 M103.816,402.593L83.749,415.67l5.291,8.12l-2.813,1.842l-12.775-19.573l2.838-1.842l5.282,8.104l20.067-13.077L103.816,402.593z
		 M124.904,449.273l-4.738-4.738c-2.779-2.779-5.375-2.947-7.802-0.52c-2.419,2.411-2.244,5.007,0.536,7.786l4.738,4.738
		L124.904,449.273z M137.545,442.342l-19.33,19.321l-7.995-8.003c-2.093-2.076-3.173-4.203-3.265-6.38
		c-0.1-2.159,0.771-4.169,2.629-6.027c1.892-1.875,3.91-2.779,6.086-2.695c2.152,0.117,4.27,1.205,6.354,3.298l5.157,5.141
		l7.518-7.501L137.545,442.342z M149.115,456.004c-2.143-1.657-4.37-2.227-6.681-1.708c-2.344,0.536-4.538,2.11-6.58,4.738
		c-2.06,2.629-3.056,5.124-2.997,7.501c0.05,2.361,1.172,4.387,3.332,6.078c2.143,1.657,4.378,2.243,6.697,1.741
		c2.311-0.536,4.487-2.109,6.546-4.738c2.043-2.629,3.039-5.141,3.005-7.534C152.371,459.704,151.258,457.679,149.115,456.004
		 M151.258,453.258c2.06,1.607,3.5,3.433,4.312,5.509c0.778,2.093,0.962,4.286,0.502,6.597c-0.485,2.311-1.599,4.571-3.34,6.814
		c-1.767,2.261-3.701,3.901-5.793,4.923c-2.126,1.005-4.286,1.356-6.496,1.088c-2.21-0.268-4.337-1.222-6.396-2.829
		c-2.043-1.591-3.466-3.416-4.27-5.492c-0.846-2.076-1.021-4.27-0.553-6.563c0.452-2.294,1.557-4.57,3.298-6.798
		c1.758-2.276,3.717-3.918,5.844-4.938c2.109-1.021,4.286-1.39,6.521-1.105C147.097,450.729,149.215,451.667,151.258,453.258
		 M186.034,476.129l-13.638,23.658l-3.491-2.009l5.877-10.196l-13.261-7.652l-5.885,10.214l-3.458-1.992l13.646-23.676l3.449,1.993
		l-6.069,10.548l13.269,7.635l6.078-10.548L186.034,476.129z M199.813,481.788c1.976,0.821,3.684,1.842,5.115,3.015
		c1.423,1.222,2.52,2.527,3.273,3.935l-2.411,2.444c-0.812-1.406-1.792-2.629-2.972-3.65c-1.155-1.004-2.604-1.892-4.328-2.595
		c-2.026-0.854-3.65-1.122-4.914-0.804c-1.281,0.335-2.176,1.071-2.654,2.243c-0.402,0.954-0.368,1.842,0.084,2.679
		c0.452,0.871,1.415,1.809,2.896,2.83l3.5,2.378c2.076,1.423,3.432,2.913,4.085,4.486c0.645,1.558,0.569,3.266-0.201,5.124
		c-0.636,1.49-1.574,2.662-2.838,3.466c-1.298,0.804-2.788,1.222-4.479,1.239c-1.691,0.05-3.466-0.318-5.324-1.105
		c-1.725-0.703-3.198-1.641-4.437-2.763c-1.272-1.122-2.202-2.395-2.83-3.801l2.411-2.311c1.272,2.646,3.332,4.555,6.195,5.76
		c1.767,0.736,3.332,0.921,4.722,0.569c1.348-0.352,2.302-1.188,2.846-2.495c0.419-1.004,0.436-1.942,0.034-2.796
		c-0.385-0.87-1.272-1.774-2.646-2.712l-3.449-2.361c-2.185-1.507-3.633-3.03-4.361-4.554c-0.745-1.524-0.745-3.148-0.008-4.923
		c0.619-1.474,1.557-2.595,2.796-3.365c1.256-0.771,2.712-1.172,4.403-1.188C196.004,480.533,197.829,480.951,199.813,481.788
		 M234.354,493.375l-5.643,23.29l9.41,2.276l-0.787,3.282l-22.721-5.509l0.804-3.281l9.41,2.276l5.643-23.272L234.354,493.375z
		 M263.739,498.23l-3.474,27.107l-17.522-2.244l0.402-3.215l13.696,1.742l1.088-8.489l-12.876-1.641l0.402-3.248l12.876,1.657
		l1.138-8.924l-13.679-1.759l0.418-3.214L263.739,498.23z M288.372,499.118l-0.54,27.308l-4.018-0.066l0.226-12.29h-0.075
		l-12.909,12.038l-4.964-0.1l14.064-12.943l-14.307-14.382l5.04,0.101l13.119,12.992h0.083l0.243-12.741L288.372,499.118z
		 M302.186,497.846c2.763-0.269,5.174,0.05,7.233,0.987c2.06,0.921,3.733,2.378,4.989,4.354c1.239,2.009,2.009,4.437,2.294,7.3
		c0.301,2.847,0.017,5.375-0.787,7.552c-0.854,2.193-2.193,3.951-4.035,5.273c-1.842,1.323-4.136,2.144-6.882,2.411
		c-1.858,0.185-3.6,0.067-5.257-0.368c-1.675-0.402-3.098-1.089-4.303-2.06l1.071-3.349c1.289,0.938,2.595,1.574,3.884,1.926
		c1.29,0.352,2.68,0.452,4.136,0.317c2.931-0.301,5.073-1.423,6.43-3.382c1.373-1.942,1.875-4.588,1.54-7.902
		c-0.335-3.315-1.355-5.811-3.08-7.484c-1.725-1.641-4.052-2.311-6.982-2.026c-1.474,0.151-2.796,0.52-3.968,1.105
		c-1.223,0.619-2.378,1.523-3.449,2.679l-1.708-3.063c0.972-1.155,2.244-2.11,3.801-2.863
		C298.652,498.498,300.344,498.029,302.186,497.846 M324.555,495.066l5.006,26.855l-3.951,0.737l-5.023-26.856L324.555,495.066z
		 M341.265,491.131l6.262,23.123l9.343-2.545l0.887,3.265l-22.553,6.111l-0.888-3.265l9.343-2.528l-6.262-23.123L341.265,491.131z
		 M392.247,485.438l-5.96,3.064c-3.5,1.791-4.454,4.219-2.88,7.283c1.557,3.014,4.085,3.633,7.567,1.842l5.978-3.064
		L392.247,485.438z M389.519,471.291l12.49,24.294l-10.079,5.19c-2.612,1.322-4.973,1.708-7.066,1.139
		c-2.093-0.553-3.733-2.01-4.938-4.337c-1.223-2.377-1.457-4.587-0.704-6.63c0.771-2.026,2.462-3.7,5.073-5.04l6.48-3.332
		l-4.839-9.443L389.519,471.291z M406.128,464.442c-2.244,1.523-3.449,3.482-3.667,5.827c-0.201,2.394,0.636,4.973,2.512,7.719
		c1.875,2.762,3.951,4.47,6.229,5.14c2.276,0.67,4.537,0.234,6.797-1.322c2.261-1.524,3.483-3.483,3.701-5.86
		c0.2-2.361-0.637-4.906-2.512-7.651c-1.875-2.763-3.969-4.487-6.262-5.174C410.632,462.467,408.371,462.919,406.128,464.442
		 M404.169,461.563c2.159-1.474,4.336-2.294,6.546-2.428c2.244-0.117,4.387,0.385,6.446,1.523c2.043,1.155,3.868,2.914,5.476,5.258
		c1.624,2.378,2.595,4.705,2.93,7.032c0.302,2.311-0.017,4.487-0.954,6.513c-0.938,2.026-2.479,3.751-4.638,5.241
		c-2.144,1.456-4.32,2.243-6.53,2.377c-2.243,0.168-4.387-0.335-6.413-1.473c-2.059-1.139-3.884-2.863-5.491-5.225
		c-1.624-2.36-2.596-4.722-2.913-7.065c-0.318-2.311-0.018-4.487,0.921-6.547C400.485,464.744,402.025,463.02,404.169,461.563
		 M436.617,435.41l18.384,20.209l-2.964,2.712l-7.936-8.723l-11.336,10.297l7.937,8.74l-2.946,2.662l-18.401-20.209l2.964-2.68
		l8.188,9.008l11.318-10.313l-8.188-8.991L436.617,435.41z M446.312,424.008c1.39-1.641,2.88-2.964,4.453-3.951
		c1.591-0.988,3.165-1.625,4.738-1.909l1.574,3.047c-1.574,0.335-3.03,0.904-4.37,1.708c-1.339,0.787-2.595,1.893-3.817,3.315
		c-1.423,1.657-2.177,3.147-2.26,4.437c-0.084,1.323,0.352,2.395,1.306,3.215c0.787,0.67,1.657,0.921,2.595,0.737
		c0.955-0.168,2.144-0.787,3.566-1.893l3.332-2.595c1.992-1.523,3.851-2.361,5.525-2.512c1.691-0.117,3.299,0.469,4.822,1.774
		c1.222,1.072,2.042,2.328,2.428,3.784c0.368,1.474,0.301,3.014-0.201,4.621c-0.469,1.641-1.373,3.215-2.679,4.738
		c-1.223,1.424-2.545,2.545-4.002,3.365c-1.456,0.854-2.946,1.373-4.487,1.524l-1.456-2.997c2.896-0.402,5.374-1.775,7.384-4.136
		c1.238-1.457,1.908-2.88,1.992-4.303c0.084-1.407-0.419-2.563-1.49-3.483c-0.837-0.703-1.708-1.004-2.662-0.903
		c-0.938,0.117-2.06,0.669-3.382,1.707l-3.315,2.545c-2.093,1.607-4.002,2.528-5.676,2.746c-1.675,0.234-3.231-0.268-4.672-1.507
		c-1.222-1.055-2.009-2.277-2.36-3.7c-0.335-1.423-0.268-2.946,0.234-4.554C443.95,427.239,444.905,425.615,446.312,424.008
		 M467.96,394.74l20.394,12.558l5.09-8.237l2.88,1.758l-12.272,19.907l-2.863-1.774l5.09-8.255l-20.41-12.557L467.96,394.74z
		 M481.757,368.152l24.696,11.67l-7.534,15.973l-2.947-1.39l5.894-12.474l-7.735-3.649l-5.559,11.736l-2.947-1.39l5.542-11.745
		l-8.12-3.826l-5.894,12.474l-2.947-1.39L481.757,368.152z M490.095,345.197l25.835,8.924l-1.322,3.81l-11.62-4.019l-0.017,0.075
		l7.467,15.99l-1.607,4.688l-7.986-17.346l-18.082,9.158l1.624-4.771l16.425-8.464l0.017-0.075l-12.038-4.169L490.095,345.197z
		 M493.008,332.096c0.586-2.704,1.642-4.889,3.182-6.572c1.54-1.674,3.433-2.796,5.692-3.39c2.294-0.562,4.839-0.527,7.652,0.083
		c2.796,0.611,5.106,1.649,6.932,3.106c1.808,1.481,3.08,3.298,3.767,5.458s0.737,4.596,0.151,7.3
		c-0.402,1.809-1.056,3.441-1.976,4.881c-0.904,1.465-2.01,2.62-3.299,3.449l-2.847-2.051c1.289-0.938,2.294-1.976,3.014-3.114
		c0.754-1.105,1.272-2.378,1.591-3.817c0.637-2.88,0.234-5.267-1.205-7.166c-1.44-1.893-3.784-3.215-7.032-3.918
		c-3.266-0.721-5.944-0.503-8.07,0.619c-2.093,1.122-3.466,3.122-4.103,6.002c-0.301,1.448-0.368,2.821-0.167,4.128
		c0.201,1.339,0.703,2.712,1.474,4.094l-3.449,0.67c-0.804-1.281-1.323-2.788-1.541-4.496
		C492.522,335.67,492.606,333.912,493.008,332.096 M497.228,310.053l27.091,3.566l-0.52,3.993l-27.091-3.558L497.228,310.053z
		 M498.667,292.564l23.91,1.197l0.502-9.673l3.365,0.171l-1.172,23.341l-3.382-0.176l0.502-9.678l-23.926-1.188L498.667,292.564z"/>
	<path style="fill:#AF1F24;" d="M347.744,62.588c0,2.102-1.691,3.801-3.784,3.801s-3.801-1.699-3.801-3.801
		c0-2.088,1.708-3.796,3.801-3.796S347.744,60.5,347.744,62.588"/>
	<path style="fill:#AF1F24;" d="M95.788,159.176c0,2.101-1.708,3.801-3.801,3.801s-3.801-1.7-3.801-3.801
		c0-2.097,1.708-3.797,3.801-3.797S95.788,157.079,95.788,159.176"/>
	<path style="fill:#AF1F24;" d="M108.378,427.942c0,2.093-1.691,3.801-3.784,3.801c-2.101,0-3.809-1.708-3.809-3.801
		s1.708-3.784,3.809-3.784C106.688,424.158,108.378,425.85,108.378,427.942"/>
	<path style="fill:#AF1F24;" d="M368.74,499.336c0,2.093-1.691,3.783-3.784,3.783s-3.801-1.69-3.801-3.783
		c0-2.11,1.708-3.801,3.801-3.801S368.74,497.226,368.74,499.336"/>
	<path style="fill:#AF1F24;" d="M515.745,272.565c0,2.102-1.69,3.796-3.801,3.796c-2.093,0-3.8-1.695-3.8-3.796
		c0-2.101,1.707-3.796,3.8-3.796C514.055,268.769,515.745,270.464,515.745,272.565"/>
	<polygon style="fill:#AF1F24;" points="163.363,260.669 163.363,248.342 178.398,248.342 178.398,209.012 166.879,215.906 
		161.271,204.931 182.668,192.21 193.133,192.21 193.133,248.342 207.206,248.342 207.206,260.669 	"/>
	<path style="fill:#AF1F24;" d="M231.709,249.501h15.705c3.801,0,6.589-0.75,8.363-2.231c1.775-1.49,2.671-3.754,2.671-6.797
		c0-2.985-0.896-5.211-2.671-6.702c-1.774-1.494-4.563-2.231-8.363-2.231h-15.705V249.501z M231.709,220.372h14.081
		c7.233,0,10.85-2.846,10.85-8.547c0-5.634-3.616-8.455-10.85-8.455h-14.081V220.372z M217.645,260.669V192.21h30.724
		c7.166,0,12.674,1.586,16.542,4.759c3.935,3.169,5.894,7.509,5.894,13.01c0,3.629-0.888,6.764-2.662,9.422
		c-1.767,2.591-4.245,4.529-7.417,5.823c3.801,1.105,6.731,3.043,8.757,5.827c2.093,2.788,3.131,6.216,3.131,10.297
		c0,6.086-2.093,10.846-6.279,14.274c-4.119,3.369-9.761,5.048-16.927,5.048H217.645z"/>
	<path style="fill:#AF1F24;" d="M314.877,248.915c5.575,0,9.929-1.971,13.043-5.923c3.164-4.01,4.738-9.548,4.738-16.605
		c0-7.125-1.54-12.625-4.654-16.509c-3.114-3.943-7.484-5.923-13.127-5.923c-5.525,0-9.845,1.98-13.026,5.923
		c-3.114,3.884-4.654,9.384-4.654,16.509c0,7.057,1.54,12.595,4.654,16.605C305.032,246.944,309.352,248.915,314.877,248.915
		 M314.877,261.741c-6.597,0-12.39-1.457-17.396-4.37c-4.956-2.976-8.823-7.091-11.615-12.335
		c-2.721-5.308-4.085-11.524-4.085-18.648c0-7.125,1.365-13.303,4.085-18.552c2.792-5.303,6.659-9.41,11.615-12.327
		c4.939-2.913,10.749-4.37,17.396-4.37c6.664,0,12.457,1.457,17.413,4.37c5.006,2.917,8.874,7.024,11.603,12.327
		c2.779,5.249,4.187,11.402,4.187,18.459c0,7.125-1.407,13.336-4.187,18.644c-2.729,5.308-6.597,9.456-11.603,12.432
		C327.334,260.284,321.541,261.741,314.877,261.741"/>
	<polygon style="fill:#AF1F24;" points="348.514,260.669 374.098,226.002 349.268,192.21 366.396,192.21 382.57,215.031 
		398.644,192.21 415.855,192.21 390.941,226.002 416.525,260.669 399.313,260.669 382.47,237.078 365.826,260.669 	"/>
	<path d="M147.223,362.97c5.877,0,10.431-1.983,13.713-5.918c3.323-4.019,5.006-9.553,5.006-16.618c0-7.115-1.649-12.616-4.914-16.5
		c-3.273-3.952-7.869-5.928-13.805-5.928c-5.81,0-10.381,1.976-13.713,5.928c-3.265,3.884-4.906,9.385-4.906,16.5
		c0,7.065,1.641,12.6,4.906,16.618C136.842,360.986,141.413,362.97,147.223,362.97 M147.223,375.787
		c-6.94,0-13.043-1.457-18.317-4.37c-5.208-2.98-9.276-7.082-12.214-12.323c-2.863-5.324-4.294-11.527-4.294-18.66
		c0-7.115,1.431-13.294,4.294-18.543c2.938-5.308,7.007-9.418,12.214-12.34c5.207-2.913,11.318-4.37,18.317-4.37
		s13.102,1.457,18.317,4.37c5.257,2.922,9.342,7.032,12.206,12.34c2.93,5.249,4.395,11.394,4.395,18.451
		c0,7.124-1.465,13.336-4.395,18.651c-2.863,5.308-6.948,9.443-12.206,12.424C160.324,374.33,154.221,375.787,147.223,375.787"/>
	<polygon points="194.137,374.716 194.137,306.261 241.772,306.261 241.772,318.006 209.658,318.006 209.658,334.716 
		239.579,334.716 239.579,346.47 209.658,346.47 209.658,374.716 	"/>
	<polygon points="251.215,374.716 251.215,306.261 298.854,306.261 298.854,318.006 266.736,318.006 266.736,334.716 
		296.66,334.716 296.66,346.47 266.736,346.47 266.736,374.716 	"/>
	<rect x="308.297" y="306.252" width="15.504" height="68.464"/>
	<path d="M372.122,375.787c-7.602,0-14.114-1.457-19.506-4.37c-5.408-2.913-9.577-6.981-12.507-12.239
		c-2.88-5.299-4.304-11.553-4.304-18.744c0-7.115,1.424-13.294,4.304-18.543c2.93-5.308,7.099-9.418,12.507-12.34
		c5.392-2.913,11.904-4.37,19.506-4.37c4.671,0,9.142,0.72,13.411,2.144c4.27,1.423,7.769,3.365,10.498,5.826l-4.805,11.938
		c-2.997-2.261-6.028-3.91-9.092-4.939c-3.014-1.113-6.179-1.657-9.511-1.657c-6.747,0-11.837,1.908-15.319,5.726
		c-3.399,3.768-5.091,9.159-5.091,16.216c0,7.065,1.691,12.499,5.091,16.325c3.482,3.825,8.572,5.726,15.319,5.726
		c3.332,0,6.497-0.511,9.511-1.549c3.063-1.104,6.095-2.796,9.092-5.057l4.805,11.947c-2.729,2.402-6.229,4.336-10.498,5.826
		C381.264,375.075,376.793,375.787,372.122,375.787"/>
	<polygon points="406.211,374.716 406.211,306.261 454.549,306.261 454.549,318.006 421.029,318.006 421.029,334.029 
		452.339,334.029 452.339,345.875 421.029,345.875 421.029,362.962 454.549,362.962 454.549,374.716 	"/>
	<rect x="161.271" y="278.036" style="fill-rule:evenodd;clip-rule:evenodd;fill:#AF1F24;" width="255.255" height="10.862"/>
</g>
</svg>
